<svg width="244" height="60" viewBox="0 0 244 60" fill="none" xmlns="http://www.w3.org/2000/svg">
<rect y="5.45312" width="244" height="53.8436" rx="16" fill="#EBA357"/>
<rect width="244" height="53.8436" rx="16" fill="white"/>
<path d="M82.3439 33.036C81.2519 33.036 80.7059 32.916 80.7059 32.676V21.012C80.7059 20.604 80.8919 20.4 81.2639 20.4H84.4319C86.2079 20.4 87.4859 20.766 88.2659 21.498C89.0579 22.23 89.4539 23.292 89.4539 24.684C89.4539 25.836 89.0819 26.892 88.3379 27.852C87.9659 28.332 87.4199 28.716 86.6999 29.004C85.9799 29.292 85.1399 29.436 84.1799 29.436V32.658C84.1799 32.802 83.9519 32.904 83.4959 32.964C83.0519 33.012 82.6679 33.036 82.3439 33.036ZM84.1799 23.532V26.376H84.4139C84.8339 26.376 85.1879 26.244 85.4759 25.98C85.7639 25.716 85.9079 25.344 85.9079 24.864C85.9079 24.384 85.8059 24.042 85.6019 23.838C85.4099 23.634 85.0619 23.532 84.5579 23.532H84.1799ZM94.2296 32.856C94.2296 32.964 93.6176 33.018 92.3936 33.018C91.4336 33.006 90.9536 32.958 90.9536 32.874V20.616C90.9536 20.436 91.5356 20.346 92.6996 20.346C93.7196 20.382 94.2296 20.442 94.2296 20.526V32.856ZM96.9919 26.466C96.6559 25.866 96.4879 25.38 96.4879 25.008C96.4879 24.624 96.5899 24.378 96.7939 24.27C97.4779 23.97 98.4139 23.82 99.6019 23.82C100.802 23.82 101.648 24.102 102.14 24.666C102.632 25.218 102.878 26.04 102.878 27.132V29.976H103.49C103.694 29.976 103.85 30.096 103.958 30.336C104.078 30.576 104.138 30.906 104.138 31.326C104.138 31.746 104.03 32.16 103.814 32.568C103.61 32.976 103.328 33.18 102.968 33.18C102.32 33.18 101.798 33.006 101.402 32.658C101.222 32.514 101.084 32.34 100.988 32.136C100.436 32.832 99.5779 33.18 98.4139 33.18C97.5379 33.18 96.7999 32.868 96.1999 32.244C95.5999 31.62 95.2999 30.882 95.2999 30.03C95.2999 28.074 96.4699 27.096 98.8099 27.096H99.7999V26.916C99.7999 26.604 99.7459 26.406 99.6379 26.322C99.5419 26.226 99.3079 26.178 98.9359 26.178C98.4799 26.178 97.8319 26.274 96.9919 26.466ZM98.4319 29.778C98.4319 30.042 98.5039 30.246 98.6479 30.39C98.7919 30.522 98.9719 30.588 99.1879 30.588C99.4159 30.588 99.6199 30.498 99.7999 30.318V28.932H99.2959C98.7199 28.932 98.4319 29.214 98.4319 29.778ZM104.527 24.09C104.527 23.958 105.073 23.892 106.165 23.892C107.269 23.892 107.839 23.952 107.875 24.072L109.171 28.32L110.413 24.036C110.461 23.94 110.833 23.892 111.529 23.892C113.125 23.892 113.887 23.97 113.815 24.126L109.585 36.168C109.573 36.24 109.243 36.276 108.595 36.276C107.959 36.276 107.365 36.252 106.813 36.204C106.261 36.168 105.997 36.12 106.021 36.06L107.587 32.28L104.527 24.09ZM119.351 26.466C119.015 25.866 118.847 25.38 118.847 25.008C118.847 24.624 118.949 24.378 119.153 24.27C119.837 23.97 120.773 23.82 121.961 23.82C123.161 23.82 124.007 24.102 124.499 24.666C124.991 25.218 125.237 26.04 125.237 27.132V29.976H125.849C126.053 29.976 126.209 30.096 126.317 30.336C126.437 30.576 126.497 30.906 126.497 31.326C126.497 31.746 126.389 32.16 126.173 32.568C125.969 32.976 125.687 33.18 125.327 33.18C124.679 33.18 124.157 33.006 123.761 32.658C123.581 32.514 123.443 32.34 123.347 32.136C122.795 32.832 121.937 33.18 120.773 33.18C119.897 33.18 119.159 32.868 118.559 32.244C117.959 31.62 117.659 30.882 117.659 30.03C117.659 28.074 118.829 27.096 121.169 27.096H122.159V26.916C122.159 26.604 122.105 26.406 121.997 26.322C121.901 26.226 121.667 26.178 121.295 26.178C120.839 26.178 120.191 26.274 119.351 26.466ZM120.791 29.778C120.791 30.042 120.863 30.246 121.007 30.39C121.151 30.522 121.331 30.588 121.547 30.588C121.775 30.588 121.979 30.498 122.159 30.318V28.932H121.655C121.079 28.932 120.791 29.214 120.791 29.778ZM130.828 33C129.664 33 128.764 32.628 128.128 31.884C127.492 31.128 127.174 30.018 127.174 28.554C127.174 27.078 127.588 25.926 128.416 25.098C129.256 24.258 130.366 23.838 131.746 23.838C133.138 23.838 134.284 24.144 135.184 24.756V33.72C135.184 34.608 134.824 35.286 134.104 35.754C133.384 36.234 132.46 36.474 131.332 36.474C130.204 36.474 129.196 36.33 128.308 36.042C128.188 35.754 128.128 35.496 128.128 35.268C128.128 34.5 128.254 33.936 128.506 33.576C129.31 33.924 130.168 34.098 131.08 34.098C131.74 34.098 132.07 33.864 132.07 33.396V32.856C131.554 32.952 131.14 33 130.828 33ZM131.656 26.772C130.852 26.772 130.45 27.378 130.45 28.59C130.45 29.346 130.606 29.838 130.918 30.066C131.122 30.222 131.326 30.3 131.53 30.3C131.734 30.3 131.914 30.282 132.07 30.246V26.826C131.926 26.79 131.788 26.772 131.656 26.772ZM137.931 26.466C137.595 25.866 137.427 25.38 137.427 25.008C137.427 24.624 137.529 24.378 137.733 24.27C138.417 23.97 139.353 23.82 140.541 23.82C141.741 23.82 142.587 24.102 143.079 24.666C143.571 25.218 143.817 26.04 143.817 27.132V29.976H144.429C144.633 29.976 144.789 30.096 144.897 30.336C145.017 30.576 145.077 30.906 145.077 31.326C145.077 31.746 144.969 32.16 144.753 32.568C144.549 32.976 144.267 33.18 143.907 33.18C143.259 33.18 142.737 33.006 142.341 32.658C142.161 32.514 142.023 32.34 141.927 32.136C141.375 32.832 140.517 33.18 139.353 33.18C138.477 33.18 137.739 32.868 137.139 32.244C136.539 31.62 136.239 30.882 136.239 30.03C136.239 28.074 137.409 27.096 139.749 27.096H140.739V26.916C140.739 26.604 140.685 26.406 140.577 26.322C140.481 26.226 140.247 26.178 139.875 26.178C139.419 26.178 138.771 26.274 137.931 26.466ZM139.371 29.778C139.371 30.042 139.443 30.246 139.587 30.39C139.731 30.522 139.911 30.588 140.127 30.588C140.355 30.588 140.559 30.498 140.739 30.318V28.932H140.235C139.659 28.932 139.371 29.214 139.371 29.778ZM149.39 32.892C149.39 32.988 148.838 33.036 147.734 33.036C146.642 33.036 146.096 32.994 146.096 32.91V24.072C146.096 23.988 146.642 23.946 147.734 23.946C148.838 23.946 149.39 23.982 149.39 24.054V32.892ZM149.39 22.992C149.39 23.076 148.838 23.118 147.734 23.118C146.642 23.118 146.096 23.082 146.096 23.01V20.418C146.096 20.298 146.642 20.238 147.734 20.238C148.838 20.238 149.39 20.274 149.39 20.346V22.992ZM154.78 32.892C154.78 32.976 154.348 33.018 153.484 33.018C152.284 32.982 151.684 32.916 151.684 32.82V26.988H151.216C150.904 26.988 150.7 26.724 150.604 26.196C150.58 26.04 150.568 25.884 150.568 25.728C150.568 25.356 150.64 24.984 150.784 24.612C151 24.084 151.336 23.82 151.792 23.82C152.248 23.82 152.656 23.928 153.016 24.144C153.376 24.36 153.616 24.576 153.736 24.792C154.492 24.144 155.392 23.82 156.436 23.82C157.48 23.82 158.236 24.102 158.704 24.666C159.172 25.23 159.406 26.154 159.406 27.438V32.838C159.406 32.982 158.89 33.054 157.858 33.054C156.838 33.054 156.328 32.982 156.328 32.838V27.636C156.328 27.036 156.118 26.736 155.698 26.736C155.578 26.736 155.41 26.79 155.194 26.898C154.978 26.994 154.84 27.066 154.78 27.114V32.892Z" fill="#EBA357"/>
<path d="M56.5013 19.2096V15.043L51.293 20.2513L56.5013 25.4596V21.293C59.9492 21.293 62.7513 24.0951 62.7513 27.543C62.7513 30.9909 59.9492 33.793 56.5013 33.793C53.0534 33.793 50.2513 30.9909 50.2513 27.543H48.168C48.168 32.1471 51.8971 35.8763 56.5013 35.8763C61.1055 35.8763 64.8346 32.1471 64.8346 27.543C64.8346 22.9388 61.1055 19.2096 56.5013 19.2096Z" fill="#EBA357"/>
</svg>
