<svg width="236" height="70" viewBox="0 0 236 70" fill="none" xmlns="http://www.w3.org/2000/svg">
<path d="M91.6867 22.55C94.1201 22.55 96.2534 22.9 98.0867 23.6C99.9534 24.2667 100.887 25.1833 100.887 26.35C100.887 27.5167 100.437 28.9667 99.5367 30.7C98.6701 32.4 97.9367 33.25 97.3367 33.25C97.1701 33.25 96.9701 33.1667 96.7367 33C96.5367 32.8 96.0367 32.6 95.2367 32.4C94.4701 32.1667 93.8034 32.05 93.2367 32.05C91.3034 32.05 89.7367 32.7333 88.5367 34.1C87.3701 35.4667 86.7867 37.5667 86.7867 40.4C86.7867 43.2 87.3867 45.2833 88.5867 46.65C89.8201 48.0167 91.3701 48.7 93.2367 48.7C94.0034 48.7 94.8534 48.6 95.7867 48.4C96.7534 48.1667 97.4367 47.85 97.8367 47.45C97.9034 47.3833 98.0367 47.35 98.2367 47.35C98.4367 47.35 98.8034 47.7333 99.3367 48.5C99.9034 49.2333 100.42 50.2167 100.887 51.45C101.353 52.65 101.587 53.5833 101.587 54.25C101.587 55.55 100.587 56.5833 98.5867 57.35C96.5867 58.1167 94.2201 58.5 91.4867 58.5C87.0867 58.5 83.4701 56.95 80.6367 53.85C77.8034 50.75 76.3867 46.3833 76.3867 40.75C76.3867 35.0833 77.8367 30.6333 80.7367 27.4C83.6701 24.1667 87.3201 22.55 91.6867 22.55ZM107.314 55.05C105.247 52.75 104.214 49.5667 104.214 45.5C104.214 41.4333 105.247 38.25 107.314 35.95C109.414 33.65 112.231 32.5 115.764 32.5C119.297 32.5 122.097 33.65 124.164 35.95C126.231 38.25 127.264 41.4333 127.264 45.5C127.264 49.5667 126.231 52.75 124.164 55.05C122.097 57.35 119.297 58.5 115.764 58.5C112.231 58.5 109.414 57.35 107.314 55.05ZM115.764 40.85C113.897 40.85 112.964 42.3833 112.964 45.45C112.964 48.5167 113.897 50.05 115.764 50.05C117.664 50.05 118.614 48.5167 118.614 45.45C118.614 42.3833 117.664 40.85 115.764 40.85ZM141.749 57.95C141.749 58.1833 140.232 58.3 137.199 58.3C134.165 58.2333 132.649 58.1 132.649 57.9V41.3H131.299C130.765 41.3 130.332 40.9833 129.999 40.35C129.699 39.6833 129.549 38.8667 129.549 37.9C129.549 34.3 130.615 32.5 132.749 32.5C134.249 32.5 135.499 32.9667 136.499 33.9C137.499 34.8 137.999 35.8333 137.999 37C138.699 35.6333 139.632 34.55 140.799 33.75C141.999 32.9167 143.215 32.5 144.449 32.5C146.382 32.5 147.549 33 147.949 34C148.049 34.2667 148.099 34.6667 148.099 35.2C148.099 35.7 147.932 36.6167 147.599 37.95C147.299 39.2833 146.982 40.25 146.649 40.85C146.315 41.45 146.115 41.75 146.049 41.75C145.982 41.75 145.665 41.6333 145.099 41.4C144.565 41.1333 144.082 41 143.649 41C142.382 41 141.749 42 141.749 44V57.95ZM161.573 57.95C161.573 58.1833 160.056 58.3 157.023 58.3C153.99 58.2333 152.473 58.1 152.473 57.9V41.3H151.123C150.59 41.3 150.156 40.9833 149.823 40.35C149.523 39.6833 149.373 38.8667 149.373 37.9C149.373 34.3 150.44 32.5 152.573 32.5C154.073 32.5 155.323 32.9667 156.323 33.9C157.323 34.8 157.823 35.8333 157.823 37C158.523 35.6333 159.456 34.55 160.623 33.75C161.823 32.9167 163.04 32.5 164.273 32.5C166.206 32.5 167.373 33 167.773 34C167.873 34.2667 167.923 34.6667 167.923 35.2C167.923 35.7 167.756 36.6167 167.423 37.95C167.123 39.2833 166.806 40.25 166.473 40.85C166.14 41.45 165.94 41.75 165.873 41.75C165.806 41.75 165.49 41.6333 164.923 41.4C164.39 41.1333 163.906 41 163.473 41C162.206 41 161.573 42 161.573 44V57.95ZM189.347 56.65C187.247 57.8833 184.547 58.5 181.247 58.5C177.947 58.5 175.164 57.3833 172.897 55.15C170.631 52.8833 169.497 49.7667 169.497 45.8C169.497 41.8 170.581 38.5833 172.747 36.15C174.947 33.7167 177.714 32.5 181.047 32.5C184.381 32.5 186.947 33.35 188.747 35.05C190.581 36.75 191.497 38.8167 191.497 41.25C191.497 46.65 188.397 49.35 182.197 49.35H178.747C178.747 50.35 179.014 51.05 179.547 51.45C180.114 51.8167 180.931 52 181.997 52C184.331 52 186.547 51.4667 188.647 50.4C188.681 50.3667 188.831 50.6 189.097 51.1C189.897 52.5333 190.297 53.75 190.297 54.75C190.297 55.7167 189.981 56.35 189.347 56.65ZM183.097 42.2C183.097 40.8 182.414 40.1 181.047 40.1C180.414 40.1 179.864 40.3 179.397 40.7C178.964 41.0667 178.747 41.6167 178.747 42.35V43.9H181.447C182.547 43.9 183.097 43.3333 183.097 42.2ZM202.964 45.6C202.964 48.8667 204.197 50.5 206.664 50.5C208.264 50.5 209.597 50.1833 210.664 49.55C211.164 49.55 211.564 50.4167 211.864 52.15C212.197 53.85 212.364 55.0167 212.364 55.65C212.364 56.25 212.28 56.65 212.114 56.85C210.347 57.95 207.93 58.5 204.864 58.5C201.797 58.5 199.18 57.3667 197.014 55.1C194.88 52.8 193.814 49.6833 193.814 45.75C193.814 41.7833 194.864 38.5833 196.964 36.15C199.097 33.7167 201.914 32.5 205.414 32.5C208.947 32.5 211.397 33.35 212.764 35.05C213.064 35.4167 213.214 35.9667 213.214 36.7C213.214 37.4 213.08 38.2667 212.814 39.3C212.214 41.4333 211.43 42.6667 210.464 43C210.33 43.0333 210.13 43.05 209.864 43.05C209.63 43.05 209.33 42.85 208.964 42.45C207.664 41.15 206.614 40.5 205.814 40.5C205.047 40.5 204.38 40.9 203.814 41.7C203.247 42.5 202.964 43.8 202.964 45.6ZM227.455 57.7C227.455 58.1 226.055 58.3 223.255 58.3C219.922 58.1667 218.255 57.95 218.255 57.65V39.95H215.705C215.038 39.95 214.705 38.8 214.705 36.5C214.705 35.9 214.755 35.1667 214.855 34.3C214.988 33.4333 215.238 33 215.605 33H218.255V28.6C218.255 27.9333 219.655 27.6 222.455 27.6C225.288 27.6 226.705 27.8667 226.705 28.4V31.6L226.755 33H231.005C231.572 33 231.855 34.1667 231.855 36.5C231.855 38.8333 231.572 40 231.005 40H227.455V57.7Z" fill="#2A8443"/>
<path fill-rule="evenodd" clip-rule="evenodd" d="M2.80679 38.275C1.25433 36.7146 1.25433 34.1931 2.80679 32.6327L6.93221 28.4861C8.49594 26.9143 11.0398 26.9143 12.6035 28.4861L26.4679 42.4216C28.0317 43.9934 30.5755 43.9934 32.1392 42.4216L65.5393 8.85019C67.1031 7.27844 69.6469 7.27844 71.2106 8.85019L75.3361 12.9968C76.8885 14.5572 76.8885 17.0787 75.3361 18.6391L32.1392 62.0575C30.5755 63.6293 28.0317 63.6293 26.4679 62.0575L2.80679 38.275Z" fill="#28AD4D"/>
</svg>
