<svg width="244" height="60" viewBox="0 0 244 60" fill="none" xmlns="http://www.w3.org/2000/svg">
<rect y="5.45312" width="244" height="53.8436" rx="16" fill="white"/>
<rect width="244" height="53.8436" rx="16" fill="#EBA357"/>
<path d="M92.7964 23.658C92.7964 24.906 92.2564 25.854 91.1764 26.502C91.7644 26.718 92.2564 27.09 92.6524 27.618C93.0484 28.146 93.2464 28.896 93.2464 29.868C93.2464 30.828 92.8864 31.59 92.1664 32.154C91.4584 32.718 90.4384 33 89.1064 33H84.8584C84.6544 33 84.4864 32.934 84.3544 32.802C84.2224 32.658 84.1564 32.472 84.1564 32.244V20.724C84.1564 20.592 84.1744 20.508 84.2104 20.472C84.2584 20.424 84.3484 20.4 84.4804 20.4H88.5844C91.3924 20.4 92.7964 21.486 92.7964 23.658ZM87.6124 23.316V25.674H87.7024C88.8544 25.674 89.4304 25.29 89.4304 24.522C89.4304 24.102 89.3164 23.796 89.0884 23.604C88.8724 23.412 88.5064 23.316 87.9904 23.316H87.6124ZM87.6124 27.798V30.138H87.9364C88.4524 30.138 88.8304 30.042 89.0704 29.85C89.3104 29.658 89.4304 29.352 89.4304 28.932C89.4304 28.512 89.3164 28.218 89.0884 28.05C88.8724 27.882 88.5064 27.798 87.9904 27.798H87.6124ZM95.6899 26.466C95.3539 25.866 95.1859 25.38 95.1859 25.008C95.1859 24.624 95.2879 24.378 95.4919 24.27C96.1759 23.97 97.1119 23.82 98.2999 23.82C99.4999 23.82 100.346 24.102 100.838 24.666C101.33 25.218 101.576 26.04 101.576 27.132V29.976H102.188C102.392 29.976 102.548 30.096 102.656 30.336C102.776 30.576 102.836 30.906 102.836 31.326C102.836 31.746 102.728 32.16 102.512 32.568C102.308 32.976 102.026 33.18 101.666 33.18C101.018 33.18 100.496 33.006 100.1 32.658C99.9199 32.514 99.7819 32.34 99.6859 32.136C99.1339 32.832 98.2759 33.18 97.1119 33.18C96.2359 33.18 95.4979 32.868 94.8979 32.244C94.2979 31.62 93.9979 30.882 93.9979 30.03C93.9979 28.074 95.1679 27.096 97.5079 27.096H98.4979V26.916C98.4979 26.604 98.4439 26.406 98.3359 26.322C98.2399 26.226 98.0059 26.178 97.6339 26.178C97.1779 26.178 96.5299 26.274 95.6899 26.466ZM97.1299 29.778C97.1299 30.042 97.2019 30.246 97.3459 30.39C97.4899 30.522 97.6699 30.588 97.8859 30.588C98.1139 30.588 98.3179 30.498 98.4979 30.318V28.932H97.9939C97.4179 28.932 97.1299 29.214 97.1299 29.778ZM106.807 28.536C106.807 29.712 107.251 30.3 108.139 30.3C108.715 30.3 109.195 30.186 109.579 29.958C109.759 29.958 109.903 30.27 110.011 30.894C110.131 31.506 110.191 31.926 110.191 32.154C110.191 32.37 110.161 32.514 110.101 32.586C109.465 32.982 108.595 33.18 107.491 33.18C106.387 33.18 105.445 32.772 104.665 31.956C103.897 31.128 103.513 30.006 103.513 28.59C103.513 27.162 103.891 26.01 104.647 25.134C105.415 24.258 106.429 23.82 107.689 23.82C108.961 23.82 109.843 24.126 110.335 24.738C110.443 24.87 110.497 25.068 110.497 25.332C110.497 25.584 110.449 25.896 110.353 26.268C110.137 27.036 109.855 27.48 109.507 27.6C109.459 27.612 109.387 27.618 109.291 27.618C109.207 27.618 109.099 27.546 108.967 27.402C108.499 26.934 108.121 26.7 107.833 26.7C107.557 26.7 107.317 26.844 107.113 27.132C106.909 27.42 106.807 27.888 106.807 28.536ZM111.484 20.544C111.484 20.352 112.03 20.256 113.122 20.256C114.142 20.292 114.652 20.37 114.652 20.49V27.402L116.434 24.108C116.518 23.928 117.028 23.838 117.964 23.838C118.9 23.838 119.5 23.898 119.764 24.018L117.424 27.834L120.124 32.892C120.148 32.94 119.92 32.976 119.44 33C118.972 33.036 118.582 33.054 118.27 33.054C117.118 33.054 116.5 33 116.416 32.892L114.634 28.896V32.874C114.634 33.03 114.106 33.108 113.05 33.108C112.006 33.108 111.484 33.036 111.484 32.892V20.544ZM128.579 32.892C128.579 33.036 128.075 33.108 127.067 33.108C125.867 33.06 125.267 32.982 125.267 32.874V26.502H124.349C124.109 26.502 123.989 26.088 123.989 25.26C123.989 25.044 124.007 24.78 124.043 24.468C124.091 24.156 124.181 24 124.313 24H125.267V22.416C125.267 22.176 125.771 22.056 126.779 22.056C127.799 22.056 128.309 22.152 128.309 22.344V23.496L128.327 24H129.857C130.061 24 130.163 24.42 130.163 25.26C130.163 26.1 130.061 26.52 129.857 26.52H128.579V32.892ZM131.84 31.938C131.096 31.11 130.724 29.964 130.724 28.5C130.724 27.036 131.096 25.89 131.84 25.062C132.596 24.234 133.61 23.82 134.882 23.82C136.154 23.82 137.162 24.234 137.906 25.062C138.65 25.89 139.022 27.036 139.022 28.5C139.022 29.964 138.65 31.11 137.906 31.938C137.162 32.766 136.154 33.18 134.882 33.18C133.61 33.18 132.596 32.766 131.84 31.938ZM134.882 26.826C134.21 26.826 133.874 27.378 133.874 28.482C133.874 29.586 134.21 30.138 134.882 30.138C135.566 30.138 135.908 29.586 135.908 28.482C135.908 27.378 135.566 26.826 134.882 26.826ZM146.693 32.874C146.693 32.982 146.189 33.036 145.181 33.036C144.185 33.036 143.687 32.952 143.687 32.784V20.454C143.687 20.37 143.873 20.31 144.245 20.274C144.617 20.238 144.929 20.22 145.181 20.22C146.189 20.22 146.693 20.328 146.693 20.544V24.144C147.365 23.94 147.875 23.838 148.223 23.838C149.135 23.838 149.855 24.084 150.383 24.576C150.911 25.056 151.175 25.956 151.175 27.276V32.856C151.175 32.964 150.707 33.018 149.771 33.018C148.715 32.982 148.187 32.922 148.187 32.838V27.546C148.187 26.958 147.995 26.664 147.611 26.664C147.347 26.664 147.041 26.79 146.693 27.042V32.874ZM153.478 31.938C152.734 31.11 152.362 29.964 152.362 28.5C152.362 27.036 152.734 25.89 153.478 25.062C154.234 24.234 155.248 23.82 156.52 23.82C157.792 23.82 158.8 24.234 159.544 25.062C160.288 25.89 160.66 27.036 160.66 28.5C160.66 29.964 160.288 31.11 159.544 31.938C158.8 32.766 157.792 33.18 156.52 33.18C155.248 33.18 154.234 32.766 153.478 31.938ZM156.52 26.826C155.848 26.826 155.512 27.378 155.512 28.482C155.512 29.586 155.848 30.138 156.52 30.138C157.204 30.138 157.546 29.586 157.546 28.482C157.546 27.378 157.204 26.826 156.52 26.826ZM170.087 32.91C170.087 32.994 169.571 33.036 168.539 33.036C167.519 33.036 167.009 32.982 167.009 32.874V27.636C167.009 27.036 166.811 26.736 166.415 26.736C166.211 26.736 165.941 26.868 165.605 27.132V32.892C165.605 33.012 165.089 33.072 164.057 33.072C163.037 33.072 162.527 33.006 162.527 32.874V26.988H162.077C161.681 26.988 161.483 26.574 161.483 25.746C161.483 25.374 161.555 24.996 161.699 24.612C161.891 24.084 162.203 23.82 162.635 23.82C163.067 23.82 163.481 23.934 163.877 24.162C164.285 24.39 164.531 24.606 164.615 24.81C165.359 24.15 166.181 23.82 167.081 23.82C167.993 23.82 168.725 24.102 169.277 24.666C169.925 24.102 170.705 23.82 171.617 23.82C173.597 23.82 174.587 25.026 174.587 27.438V32.91C174.587 32.994 174.071 33.036 173.039 33.036C172.019 33.036 171.509 32.982 171.509 32.874V27.636C171.509 27.036 171.311 26.736 170.915 26.736C170.699 26.736 170.423 26.868 170.087 27.132V32.91ZM182.922 32.514C182.166 32.958 181.194 33.18 180.006 33.18C178.818 33.18 177.816 32.778 177 31.974C176.184 31.158 175.776 30.036 175.776 28.608C175.776 27.168 176.166 26.01 176.946 25.134C177.738 24.258 178.734 23.82 179.934 23.82C181.134 23.82 182.058 24.126 182.706 24.738C183.366 25.35 183.696 26.094 183.696 26.97C183.696 28.914 182.58 29.886 180.348 29.886H179.106C179.106 30.246 179.202 30.498 179.394 30.642C179.598 30.774 179.892 30.84 180.276 30.84C181.116 30.84 181.914 30.648 182.67 30.264C182.682 30.252 182.736 30.336 182.832 30.516C183.12 31.032 183.264 31.47 183.264 31.83C183.264 32.178 183.15 32.406 182.922 32.514ZM180.672 27.312C180.672 26.808 180.426 26.556 179.934 26.556C179.706 26.556 179.508 26.628 179.34 26.772C179.184 26.904 179.106 27.102 179.106 27.366V27.924H180.078C180.474 27.924 180.672 27.72 180.672 27.312Z" fill="white"/>
<path d="M47.8761 26.2186H48.8344V32.7983C48.8344 33.835 49.6941 34.6782 50.7511 34.6782H62.2511C63.3081 34.6782 64.1678 33.835 64.1678 32.7983V26.2186H65.1261C65.3156 26.2186 65.5009 26.1634 65.6584 26.0601C65.816 25.9568 65.9388 25.81 66.0113 25.6383C66.0838 25.4666 66.1028 25.2776 66.0658 25.0953C66.0289 24.913 65.9376 24.7455 65.8036 24.6141L57.1786 16.1545C57.0897 16.0671 56.9841 15.9978 56.8678 15.9505C56.7516 15.9032 56.627 15.8789 56.5011 15.8789C56.3752 15.8789 56.2506 15.9032 56.1343 15.9505C56.0181 15.9978 55.9125 16.0671 55.8236 16.1545L47.1986 24.6141C47.0646 24.7455 46.9733 24.913 46.9364 25.0953C46.8994 25.2776 46.9184 25.4666 46.9909 25.6383C47.0634 25.81 47.1862 25.9568 47.3438 26.0601C47.5013 26.1634 47.6866 26.2186 47.8761 26.2186ZM54.5844 32.7983V28.0985H58.4178V32.7983H54.5844ZM56.5011 18.1481L62.2511 23.7879V28.0985L62.2521 32.7983H60.3344V28.0985C60.3344 27.0617 59.4748 26.2186 58.4178 26.2186H54.5844C53.5274 26.2186 52.6678 27.0617 52.6678 28.0985V32.7983H50.7511V23.7879L56.5011 18.1481Z" fill="white"/>
</svg>
