<svg width="244" height="60" viewBox="0 0 244 60" fill="none" xmlns="http://www.w3.org/2000/svg">
<rect y="5.45312" width="244" height="53.8436" rx="16" fill="#EBA357"/>
<rect width="244" height="53.8436" rx="16" fill="white"/>
<path d="M79.7469 28.9635C79.9749 29.1435 80.3649 29.3895 80.9169 29.7015C81.4809 30.0135 82.0149 30.1695 82.5189 30.1695C83.0349 30.1695 83.2929 29.9715 83.2929 29.5755C83.2929 29.3955 83.2209 29.2395 83.0769 29.1075C82.9329 28.9635 82.6689 28.8015 82.2849 28.6215C81.9009 28.4415 81.6129 28.3035 81.4209 28.2075C81.2289 28.0995 80.9709 27.9315 80.6469 27.7035C80.3349 27.4635 80.0949 27.2175 79.9269 26.9655C79.4469 26.2815 79.2069 25.4115 79.2069 24.3555C79.2069 23.2995 79.5969 22.4115 80.3769 21.6915C81.1689 20.9595 82.2009 20.5935 83.4729 20.5935C84.3369 20.5935 85.1349 20.6895 85.8669 20.8815C86.5989 21.0615 86.9769 21.3015 87.0009 21.6015C87.0009 21.6375 87.0009 21.6735 87.0009 21.7095C87.0009 22.1295 86.8689 22.6635 86.6049 23.3115C86.3409 23.9475 86.1549 24.3015 86.0469 24.3735C85.2789 23.9775 84.5889 23.7795 83.9769 23.7795C83.3769 23.7795 83.0769 23.9955 83.0769 24.4275C83.0769 24.6915 83.2989 24.9255 83.7429 25.1295C83.8389 25.1775 83.9769 25.2435 84.1569 25.3275C84.3369 25.4115 84.5409 25.5135 84.7689 25.6335C85.0089 25.7415 85.2609 25.8855 85.5249 26.0655C85.8009 26.2335 86.0949 26.4615 86.4069 26.7495C87.0429 27.3495 87.3609 28.1415 87.3609 29.1255C87.3609 30.4095 87.0069 31.4595 86.2989 32.2755C85.5909 33.0915 84.4989 33.5115 83.0229 33.5355C82.3029 33.5355 81.6489 33.4755 81.0609 33.3555C80.4849 33.2355 79.9809 33.0015 79.5489 32.6535C79.1169 32.3055 78.9009 31.8855 78.9009 31.3935C78.9009 30.9015 78.9909 30.4155 79.1709 29.9355C79.3509 29.4435 79.5429 29.1195 79.7469 28.9635ZM94.2594 33.0675C94.2594 33.3075 93.6654 33.4275 92.4774 33.4275C91.2894 33.4275 90.6954 33.3075 90.6954 33.0675V24.0315H88.5354C88.3314 24.0315 88.1874 23.7555 88.1034 23.2035C88.0674 22.9395 88.0494 22.6695 88.0494 22.3935C88.0494 22.1175 88.0674 21.8475 88.1034 21.5835C88.1874 21.0315 88.3314 20.7555 88.5354 20.7555H96.3654C96.5694 20.7555 96.7134 21.0315 96.7974 21.5835C96.8334 21.8475 96.8514 22.1175 96.8514 22.3935C96.8514 22.6695 96.8334 22.9395 96.7974 23.2035C96.7134 23.7555 96.5694 24.0315 96.3654 24.0315H94.2594V33.0675ZM105.88 33.3915C104.836 33.3915 104.272 33.2235 104.188 32.8875L103.594 30.5655H100.732L100.21 32.7975C100.138 33.1695 99.5615 33.3555 98.4815 33.3555C97.9055 33.3555 97.4795 33.3255 97.2035 33.2655C96.9275 33.1935 96.7895 33.1395 96.7895 33.1035L99.9755 20.9175C99.9755 20.8215 100.798 20.7735 102.442 20.7735C104.086 20.7735 104.908 20.8215 104.908 20.9175L108.022 33.1215C108.022 33.2055 107.746 33.2715 107.194 33.3195C106.642 33.3675 106.204 33.3915 105.88 33.3915ZM101.182 28.2795H103.072L102.262 24.5535H102.154L101.182 28.2795ZM112.652 33.1035C112.652 33.2955 112.082 33.3915 110.942 33.3915C109.79 33.3915 109.214 33.3015 109.214 33.1215V21.3855C109.214 20.9655 109.436 20.7555 109.88 20.7555H113.318C116.474 20.7555 118.052 21.9855 118.052 24.4455C118.052 25.1895 117.908 25.8675 117.62 26.4795C117.332 27.0795 116.924 27.5595 116.396 27.9195L118.664 31.6995C118.568 31.9875 118.256 32.3175 117.728 32.6895C117.008 33.2055 116.414 33.4635 115.946 33.4635C115.478 33.4635 115.13 33.2955 114.902 32.9595L113.21 29.0175H112.652V33.1035ZM112.652 23.9415V26.6415H112.742C113.882 26.6415 114.452 26.1675 114.452 25.2195C114.452 24.7875 114.338 24.4695 114.11 24.2655C113.894 24.0495 113.534 23.9415 113.03 23.9415H112.652ZM125.25 33.0675C125.25 33.3075 124.656 33.4275 123.468 33.4275C122.28 33.4275 121.686 33.3075 121.686 33.0675V24.0315H119.526C119.322 24.0315 119.178 23.7555 119.094 23.2035C119.058 22.9395 119.04 22.6695 119.04 22.3935C119.04 22.1175 119.058 21.8475 119.094 21.5835C119.178 21.0315 119.322 20.7555 119.526 20.7555H127.356C127.56 20.7555 127.704 21.0315 127.788 21.5835C127.824 21.8475 127.842 22.1175 127.842 22.3935C127.842 22.6695 127.824 22.9395 127.788 23.2035C127.704 23.7555 127.56 24.0315 127.356 24.0315H125.25V33.0675ZM138.919 29.5935L138.955 27.1455C138.955 26.9775 139.129 26.8695 139.477 26.8215C139.825 26.7615 140.113 26.7315 140.341 26.7315L141.043 26.7855C141.499 26.8575 141.727 26.9835 141.727 27.1635L141.655 32.7975C141.415 32.9655 140.929 33.1335 140.197 33.3015C139.477 33.4575 138.649 33.5355 137.713 33.5355C135.973 33.5355 134.569 32.9715 133.501 31.8435C132.433 30.7155 131.899 29.0595 131.899 26.8755C131.899 25.0155 132.421 23.5035 133.465 22.3395C134.509 21.1755 135.955 20.5935 137.803 20.5935C138.643 20.5935 139.399 20.6775 140.071 20.8455C140.755 21.0015 141.223 21.2175 141.475 21.4935C141.487 21.5895 141.493 21.7695 141.493 22.0335C141.493 22.2975 141.403 22.6755 141.223 23.1675C141.043 23.6475 140.839 24.0075 140.611 24.2475C140.383 24.4875 140.215 24.6075 140.107 24.6075C140.011 24.6075 139.903 24.5655 139.783 24.4815C139.675 24.3855 139.453 24.2895 139.117 24.1935C138.781 24.0855 138.457 24.0315 138.145 24.0315C137.401 24.0315 136.795 24.2715 136.327 24.7515C135.871 25.2315 135.643 25.9755 135.643 26.9835C135.643 27.9915 135.877 28.7595 136.345 29.2875C136.825 29.8035 137.371 30.0615 137.983 30.0615C138.607 30.0615 138.919 29.9055 138.919 29.5935ZM151.899 33.3915C150.855 33.3915 150.291 33.2235 150.207 32.8875L149.613 30.5655H146.751L146.229 32.7975C146.157 33.1695 145.581 33.3555 144.501 33.3555C143.925 33.3555 143.499 33.3255 143.223 33.2655C142.947 33.1935 142.809 33.1395 142.809 33.1035L145.995 20.9175C145.995 20.8215 146.817 20.7735 148.461 20.7735C150.105 20.7735 150.927 20.8215 150.927 20.9175L154.041 33.1215C154.041 33.2055 153.765 33.2715 153.213 33.3195C152.661 33.3675 152.223 33.3915 151.899 33.3915ZM147.201 28.2795H149.091L148.281 24.5535H148.173L147.201 28.2795ZM167.834 33.3735C166.766 33.3735 166.232 33.2535 166.232 33.0135L165.854 25.7955L163.658 33.1035C163.61 33.2475 163.202 33.3195 162.434 33.3195C161.666 33.3195 161.27 33.2535 161.246 33.1215L158.978 25.7235L158.726 32.9055C158.714 33.0855 158.486 33.2115 158.042 33.2835C157.598 33.3435 157.226 33.3735 156.926 33.3735C156.638 33.3735 156.356 33.3555 156.08 33.3195C155.504 33.2355 155.222 33.0855 155.234 32.8695L155.648 21.1695C155.648 20.8815 156.38 20.7375 157.844 20.7375C158.276 20.7375 158.804 20.7735 159.428 20.8455C160.052 20.9055 160.4 21.0315 160.472 21.2235L162.488 26.8935L164.252 21.2055C164.36 20.8935 165.188 20.7375 166.736 20.7375C167.18 20.7375 167.708 20.7735 168.32 20.8455C168.944 20.9055 169.256 21.0195 169.256 21.1875L169.778 32.9955C169.778 33.1275 169.544 33.2235 169.076 33.2835C168.608 33.3435 168.194 33.3735 167.834 33.3735ZM177.414 25.7595C177.642 25.7595 177.756 26.1795 177.756 27.0195C177.756 27.2715 177.726 27.5715 177.666 27.9195C177.618 28.2555 177.522 28.4235 177.378 28.4235H175.092V30.2235H178.404C178.608 30.2235 178.746 30.4875 178.818 31.0155C178.854 31.2435 178.872 31.4895 178.872 31.7535C178.872 32.0055 178.836 32.3355 178.764 32.7435C178.692 33.1515 178.572 33.3555 178.404 33.3555H172.248C171.792 33.3555 171.564 33.1695 171.564 32.7975V21.2235C171.564 20.9115 171.702 20.7555 171.978 20.7555H178.422C178.674 20.7555 178.8 21.2895 178.8 22.3575C178.8 23.4135 178.674 23.9415 178.422 23.9415H175.092V25.7595H177.414Z" fill="#EBA357"/>
<path d="M64.6375 28.2369L52.1698 35.2257C51.1118 35.8182 49.7539 35.1008 49.7539 33.9063V19.9286C49.7539 18.736 51.1098 18.0167 52.1698 18.6111L64.6375 25.5999C64.8782 25.7327 65.0783 25.9246 65.2174 26.1561C65.3566 26.3877 65.4299 26.6507 65.4299 26.9184C65.4299 27.1861 65.3566 27.4491 65.2174 27.6807C65.0783 27.9122 64.8782 28.1041 64.6375 28.2369Z" fill="#EBA357"/>
</svg>
