<svg width="202" height="50" viewBox="0 0 202 50" fill="none" xmlns="http://www.w3.org/2000/svg">
<path d="M188.174 33.5001C188.906 34.4427 189.528 35.1713 190.869 34.9844C191.481 34.8977 192.34 35.4313 192.852 35.9242C195.612 38.5866 198.312 41.3114 201.007 44.0415C202.288 45.3389 202.318 46.9613 201.164 48.1368C200.008 49.3149 198.35 49.3122 197.072 48.0501C194.306 45.3254 191.554 42.5925 188.857 39.8028C188.394 39.3234 187.89 38.4946 187.99 37.9312C188.242 36.5065 187.37 35.9161 186.552 35.1848C176.528 43.5432 163.56 40.572 157.319 32.6063C150.965 24.5025 151.683 12.7667 159.069 5.6461C166.515 -1.52866 178.242 -1.89431 186.078 4.71439C194.109 11.4883 195.999 24.3671 188.174 33.5001ZM173.093 36.8343C182.435 36.7611 189.864 29.3074 189.813 20.0606C189.761 10.8193 182.281 3.31681 173.142 3.33848C163.868 3.36014 156.236 10.9574 156.333 20.0715C156.434 29.4347 163.904 36.9074 173.096 36.8343H173.093Z" fill="#938E8E"/>
<path d="M174.462 5.9635C167.095 9.19201 162.085 14.2325 159.138 21.3125C158.06 15.5759 164.446 5.77932 174.462 5.9635V5.9635Z" fill="#938E8E"/>
<path d="M16.7905 25.84V15.16H14.6605C14.3205 15.16 14.0805 14.73 13.9405 13.87C13.8805 13.45 13.8505 13.02 13.8505 12.58C13.8505 12.14 13.8805 11.71 13.9405 11.29C14.0805 10.43 14.3205 10 14.6605 10H24.7405C25.0805 10 25.3105 10.43 25.4305 11.29C25.5105 11.71 25.5505 12.14 25.5505 12.58C25.5505 13.02 25.5105 13.45 25.4305 13.87C25.3105 14.73 25.0805 15.16 24.7405 15.16H22.7305V25.84H24.8305C25.1705 25.84 25.4105 26.27 25.5505 27.13C25.6305 27.55 25.6705 27.98 25.6705 28.42C25.6705 28.86 25.6305 29.29 25.5505 29.71C25.4105 30.57 25.1705 31 24.8305 31H14.7205C14.3805 31 14.1505 30.57 14.0305 29.71C13.9505 29.29 13.9105 28.86 13.9105 28.42C13.9105 27.98 13.9505 27.55 14.0305 27.13C14.1505 26.27 14.3805 25.84 14.7205 25.84H16.7905ZM41.1119 30.85C41.1119 30.99 40.2519 31.06 38.5319 31.06C36.8319 31.06 35.9819 30.97 35.9819 30.79V22.06C35.9819 21.06 35.6519 20.56 34.9919 20.56C34.6519 20.56 34.2019 20.78 33.6419 21.22V30.82C33.6419 31.02 32.7819 31.12 31.0619 31.12C29.3619 31.12 28.5119 31.01 28.5119 30.79V20.98H27.7619C27.1019 20.98 26.7719 20.29 26.7719 18.91C26.7719 18.29 26.8919 17.66 27.1319 17.02C27.4519 16.14 27.9719 15.7 28.6919 15.7C29.4119 15.7 30.1019 15.89 30.7619 16.27C31.4419 16.65 31.8519 17.01 31.9919 17.35C33.2319 16.25 34.6019 15.7 36.1019 15.7C37.6219 15.7 38.8419 16.17 39.7619 17.11C40.8419 16.17 42.1419 15.7 43.6619 15.7C46.9619 15.7 48.6119 17.71 48.6119 21.73V30.85C48.6119 30.99 47.7519 31.06 46.0319 31.06C44.3319 31.06 43.4819 30.97 43.4819 30.79V22.06C43.4819 21.06 43.1519 20.56 42.4919 20.56C42.1319 20.56 41.6719 20.78 41.1119 21.22V30.85ZM53.0545 20.11C52.4945 19.11 52.2145 18.3 52.2145 17.68C52.2145 17.04 52.3845 16.63 52.7245 16.45C53.8645 15.95 55.4245 15.7 57.4045 15.7C59.4045 15.7 60.8145 16.17 61.6345 17.11C62.4545 18.03 62.8645 19.4 62.8645 21.22V25.96H63.8845C64.2245 25.96 64.4845 26.16 64.6645 26.56C64.8645 26.96 64.9645 27.51 64.9645 28.21C64.9645 28.91 64.7845 29.6 64.4245 30.28C64.0845 30.96 63.6145 31.3 63.0145 31.3C61.9345 31.3 61.0645 31.01 60.4045 30.43C60.1045 30.19 59.8745 29.9 59.7145 29.56C58.7945 30.72 57.3645 31.3 55.4245 31.3C53.9645 31.3 52.7345 30.78 51.7345 29.74C50.7345 28.7 50.2345 27.47 50.2345 26.05C50.2345 22.79 52.1845 21.16 56.0845 21.16H57.7345V20.86C57.7345 20.34 57.6445 20.01 57.4645 19.87C57.3045 19.71 56.9145 19.63 56.2945 19.63C55.5345 19.63 54.4545 19.79 53.0545 20.11ZM55.4545 25.63C55.4545 26.07 55.5745 26.41 55.8145 26.65C56.0545 26.87 56.3545 26.98 56.7145 26.98C57.0945 26.98 57.4345 26.83 57.7345 26.53V24.22H56.8945C55.9345 24.22 55.4545 24.69 55.4545 25.63ZM72.1825 31C70.2425 31 68.7425 30.38 67.6825 29.14C66.6225 27.88 66.0925 26.03 66.0925 23.59C66.0925 21.13 66.7825 19.21 68.1625 17.83C69.5625 16.43 71.4125 15.73 73.7125 15.73C76.0325 15.73 77.9425 16.24 79.4425 17.26V32.2C79.4425 33.68 78.8425 34.81 77.6425 35.59C76.4425 36.39 74.9025 36.79 73.0225 36.79C71.1425 36.79 69.4625 36.55 67.9825 36.07C67.7825 35.59 67.6825 35.16 67.6825 34.78C67.6825 33.5 67.8925 32.56 68.3125 31.96C69.6525 32.54 71.0825 32.83 72.6025 32.83C73.7025 32.83 74.2525 32.44 74.2525 31.66V30.76C73.3925 30.92 72.7025 31 72.1825 31ZM73.5625 20.62C72.2225 20.62 71.5525 21.63 71.5525 23.65C71.5525 24.91 71.8125 25.73 72.3325 26.11C72.6725 26.37 73.0125 26.5 73.3525 26.5C73.6925 26.5 73.9925 26.47 74.2525 26.41V20.71C74.0125 20.65 73.7825 20.62 73.5625 20.62ZM93.4713 30.19C92.2113 30.93 90.5913 31.3 88.6113 31.3C86.6313 31.3 84.9613 30.63 83.6013 29.29C82.2413 27.93 81.5613 26.06 81.5613 23.68C81.5613 21.28 82.2113 19.35 83.5113 17.89C84.8313 16.43 86.4913 15.7 88.4912 15.7C90.4913 15.7 92.0313 16.21 93.1113 17.23C94.2113 18.25 94.7613 19.49 94.7613 20.95C94.7613 24.19 92.9013 25.81 89.1813 25.81H87.1113C87.1113 26.41 87.2713 26.83 87.5913 27.07C87.9313 27.29 88.4213 27.4 89.0613 27.4C90.4613 27.4 91.7913 27.08 93.0513 26.44C93.0713 26.42 93.1613 26.56 93.3213 26.86C93.8013 27.72 94.0413 28.45 94.0413 29.05C94.0413 29.63 93.8513 30.01 93.4713 30.19ZM89.7213 21.52C89.7213 20.68 89.3113 20.26 88.4912 20.26C88.1113 20.26 87.7813 20.38 87.5013 20.62C87.2413 20.84 87.1113 21.17 87.1113 21.61V22.54H88.7313C89.3913 22.54 89.7213 22.2 89.7213 21.52ZM103.305 23.68C103.685 23.98 104.335 24.39 105.255 24.91C106.195 25.43 107.085 25.69 107.925 25.69C108.785 25.69 109.215 25.36 109.215 24.7C109.215 24.4 109.095 24.14 108.855 23.92C108.615 23.68 108.175 23.41 107.535 23.11C106.895 22.81 106.415 22.58 106.095 22.42C105.775 22.24 105.345 21.96 104.805 21.58C104.285 21.18 103.885 20.77 103.605 20.35C102.805 19.21 102.405 17.76 102.405 16C102.405 14.24 103.055 12.76 104.355 11.56C105.675 10.34 107.395 9.73 109.515 9.73C110.955 9.73 112.285 9.89 113.505 10.21C114.725 10.51 115.355 10.91 115.395 11.41C115.395 11.47 115.395 11.53 115.395 11.59C115.395 12.29 115.175 13.18 114.735 14.26C114.295 15.32 113.985 15.91 113.805 16.03C112.525 15.37 111.375 15.04 110.355 15.04C109.355 15.04 108.855 15.4 108.855 16.12C108.855 16.56 109.225 16.95 109.965 17.29C110.125 17.37 110.355 17.48 110.655 17.62C110.955 17.76 111.295 17.93 111.675 18.13C112.075 18.31 112.495 18.55 112.935 18.85C113.395 19.13 113.885 19.51 114.405 19.99C115.465 20.99 115.995 22.31 115.995 23.95C115.995 26.09 115.405 27.84 114.225 29.2C113.045 30.56 111.225 31.26 108.765 31.3C107.565 31.3 106.475 31.2 105.495 31C104.535 30.8 103.695 30.41 102.975 29.83C102.255 29.25 101.895 28.55 101.895 27.73C101.895 26.91 102.045 26.1 102.345 25.3C102.645 24.48 102.965 23.94 103.305 23.68ZM129.653 30.19C128.393 30.93 126.773 31.3 124.793 31.3C122.813 31.3 121.143 30.63 119.783 29.29C118.423 27.93 117.743 26.06 117.743 23.68C117.743 21.28 118.393 19.35 119.693 17.89C121.013 16.43 122.673 15.7 124.673 15.7C126.673 15.7 128.213 16.21 129.293 17.23C130.393 18.25 130.943 19.49 130.943 20.95C130.943 24.19 129.083 25.81 125.363 25.81H123.293C123.293 26.41 123.453 26.83 123.773 27.07C124.113 27.29 124.603 27.4 125.243 27.4C126.643 27.4 127.973 27.08 129.233 26.44C129.253 26.42 129.343 26.56 129.503 26.86C129.983 27.72 130.223 28.45 130.223 29.05C130.223 29.63 130.033 30.01 129.653 30.19ZM125.903 21.52C125.903 20.68 125.493 20.26 124.673 20.26C124.293 20.26 123.963 20.38 123.683 20.62C123.423 20.84 123.293 21.17 123.293 21.61V22.54H124.913C125.573 22.54 125.903 22.2 125.903 21.52ZM134.793 20.11C134.233 19.11 133.953 18.3 133.953 17.68C133.953 17.04 134.123 16.63 134.463 16.45C135.603 15.95 137.163 15.7 139.143 15.7C141.143 15.7 142.553 16.17 143.373 17.11C144.193 18.03 144.603 19.4 144.603 21.22V25.96H145.623C145.963 25.96 146.223 26.16 146.403 26.56C146.603 26.96 146.703 27.51 146.703 28.21C146.703 28.91 146.523 29.6 146.163 30.28C145.823 30.96 145.353 31.3 144.753 31.3C143.673 31.3 142.803 31.01 142.143 30.43C141.843 30.19 141.613 29.9 141.453 29.56C140.533 30.72 139.103 31.3 137.163 31.3C135.703 31.3 134.473 30.78 133.473 29.74C132.473 28.7 131.973 27.47 131.973 26.05C131.973 22.79 133.923 21.16 137.823 21.16H139.473V20.86C139.473 20.34 139.383 20.01 139.203 19.87C139.043 19.71 138.653 19.63 138.033 19.63C137.273 19.63 136.193 19.79 134.793 20.11ZM137.193 25.63C137.193 26.07 137.313 26.41 137.553 26.65C137.793 26.87 138.093 26.98 138.453 26.98C138.833 26.98 139.173 26.83 139.473 26.53V24.22H138.633C137.673 24.22 137.193 24.69 137.193 25.63ZM154.971 30.97C154.971 31.11 154.061 31.18 152.241 31.18C150.421 31.14 149.511 31.06 149.511 30.94V20.98H148.701C148.381 20.98 148.121 20.79 147.921 20.41C147.741 20.01 147.651 19.52 147.651 18.94C147.651 16.78 148.291 15.7 149.571 15.7C150.471 15.7 151.221 15.98 151.821 16.54C152.421 17.08 152.721 17.7 152.721 18.4C153.141 17.58 153.701 16.93 154.401 16.45C155.121 15.95 155.851 15.7 156.591 15.7C157.751 15.7 158.451 16 158.691 16.6C158.751 16.76 158.781 17 158.781 17.32C158.781 17.62 158.681 18.17 158.481 18.97C158.301 19.77 158.111 20.35 157.911 20.71C157.711 21.07 157.591 21.25 157.551 21.25C157.511 21.25 157.321 21.18 156.981 21.04C156.661 20.88 156.371 20.8 156.111 20.8C155.351 20.8 154.971 21.4 154.971 22.6V30.97ZM165.215 23.56C165.215 25.52 165.955 26.5 167.435 26.5C168.395 26.5 169.195 26.31 169.835 25.93C170.135 25.93 170.375 26.45 170.555 27.49C170.755 28.51 170.855 29.21 170.855 29.59C170.855 29.95 170.805 30.19 170.705 30.31C169.645 30.97 168.195 31.3 166.355 31.3C164.515 31.3 162.945 30.62 161.645 29.26C160.365 27.88 159.725 26.01 159.725 23.65C159.725 21.27 160.355 19.35 161.615 17.89C162.895 16.43 164.585 15.7 166.685 15.7C168.805 15.7 170.275 16.21 171.095 17.23C171.275 17.45 171.365 17.78 171.365 18.22C171.365 18.64 171.285 19.16 171.125 19.78C170.765 21.06 170.295 21.8 169.715 22C169.635 22.02 169.515 22.03 169.355 22.03C169.215 22.03 169.035 21.91 168.815 21.67C168.035 20.89 167.405 20.5 166.925 20.5C166.465 20.5 166.065 20.74 165.725 21.22C165.385 21.7 165.215 22.48 165.215 23.56ZM178.02 30.79C178.02 30.97 177.18 31.06 175.5 31.06C173.84 31.06 173.01 30.92 173.01 30.64V10.09C173.01 9.95 173.32 9.85 173.94 9.79C174.56 9.73 175.08 9.7 175.5 9.7C177.18 9.7 178.02 9.88 178.02 10.24V16.24C179.14 15.9 179.99 15.73 180.57 15.73C182.09 15.73 183.29 16.14 184.17 16.96C185.05 17.76 185.49 19.26 185.49 21.46V30.76C185.49 30.94 184.71 31.03 183.15 31.03C181.39 30.97 180.51 30.87 180.51 30.73V21.91C180.51 20.93 180.19 20.44 179.55 20.44C179.11 20.44 178.6 20.65 178.02 21.07V30.79Z" fill="black"/>
</svg>
