<svg width="200" height="255" viewBox="0 0 200 255" fill="none" xmlns="http://www.w3.org/2000/svg">
<path d="M31.6212 228.3C31.5612 228.08 32.5712 227.97 34.6512 227.97C36.9512 227.97 38.1312 228.16 38.1912 228.54L39.6612 241.17L42.8412 228.39C42.9412 228.09 43.7212 227.94 45.1812 227.94C46.6412 227.94 47.4212 228.08 47.5212 228.36L50.6412 241.23L52.3812 228.48C52.4212 228.26 52.8812 228.11 53.7612 228.03C54.6412 227.95 55.3512 227.91 55.8912 227.91C57.9912 227.91 59.0112 228.05 58.9512 228.33L55.3212 248.22C55.2412 248.52 54.6712 248.74 53.6112 248.88C52.5512 249.02 51.6912 249.09 51.0312 249.09C48.5512 249.09 47.2512 248.81 47.1312 248.25L45.0912 240L42.8712 248.22C42.7912 248.58 42.0912 248.84 40.7712 249C40.0912 249.06 39.4112 249.09 38.7312 249.09L36.8112 249C35.4912 248.86 34.7912 248.61 34.7112 248.25L31.6212 228.3ZM71.5132 248.19C70.2532 248.93 68.6332 249.3 66.6532 249.3C64.6732 249.3 63.0032 248.63 61.6432 247.29C60.2832 245.93 59.6032 244.06 59.6032 241.68C59.6032 239.28 60.2532 237.35 61.5532 235.89C62.8732 234.43 64.5332 233.7 66.5332 233.7C68.5332 233.7 70.0732 234.21 71.1532 235.23C72.2532 236.25 72.8032 237.49 72.8032 238.95C72.8032 242.19 70.9432 243.81 67.2232 243.81H65.1532C65.1532 244.41 65.3132 244.83 65.6332 245.07C65.9732 245.29 66.4632 245.4 67.1032 245.4C68.5032 245.4 69.8332 245.08 71.0932 244.44C71.1132 244.42 71.2032 244.56 71.3632 244.86C71.8432 245.72 72.0832 246.45 72.0832 247.05C72.0832 247.63 71.8932 248.01 71.5132 248.19ZM67.7632 239.52C67.7632 238.68 67.3532 238.26 66.5332 238.26C66.1532 238.26 65.8232 238.38 65.5432 238.62C65.2832 238.84 65.1532 239.17 65.1532 239.61V240.54H66.7732C67.4332 240.54 67.7632 240.2 67.7632 239.52ZM80.2231 248.76C80.2231 248.94 79.2031 249.03 77.1631 249.03C75.5631 249.01 74.7631 248.93 74.7631 248.79V228.36C74.7631 228.06 75.7331 227.91 77.6731 227.91C79.3731 227.97 80.2231 228.07 80.2231 228.21V248.76ZM88.3969 248.76C88.3969 248.94 87.3769 249.03 85.3369 249.03C83.7369 249.01 82.9369 248.93 82.9369 248.79V228.36C82.9369 228.06 83.9069 227.91 85.8469 227.91C87.5469 227.97 88.3969 228.07 88.3969 228.21V248.76ZM96.915 247.62V229.62C96.915 229.12 97.035 228.73 97.275 228.45C97.535 228.15 97.865 228 98.265 228H103.275C106.455 228 108.865 228.8 110.505 230.4C112.165 232 112.995 234.52 112.995 237.96C112.995 245.32 109.855 249 103.575 249H98.445C97.425 249 96.915 248.54 96.915 247.62ZM102.675 233.7V242.67C102.675 243.09 102.705 243.36 102.765 243.48C102.825 243.58 103.005 243.63 103.305 243.63C104.405 243.63 105.235 243.22 105.795 242.4C106.375 241.58 106.665 240.22 106.665 238.32C106.665 236.4 106.365 235.15 105.765 234.57C105.185 233.99 104.255 233.7 102.975 233.7H102.675ZM116.541 247.23C115.301 245.85 114.681 243.94 114.681 241.5C114.681 239.06 115.301 237.15 116.541 235.77C117.801 234.39 119.491 233.7 121.611 233.7C123.731 233.7 125.411 234.39 126.651 235.77C127.891 237.15 128.511 239.06 128.511 241.5C128.511 243.94 127.891 245.85 126.651 247.23C125.411 248.61 123.731 249.3 121.611 249.3C119.491 249.3 117.801 248.61 116.541 247.23ZM121.611 238.71C120.491 238.71 119.931 239.63 119.931 241.47C119.931 243.31 120.491 244.23 121.611 244.23C122.751 244.23 123.321 243.31 123.321 241.47C123.321 239.63 122.751 238.71 121.611 238.71ZM136.902 248.82C136.902 248.96 136.182 249.03 134.742 249.03C132.742 248.97 131.742 248.86 131.742 248.7V238.98H130.962C130.442 238.98 130.102 238.54 129.942 237.66C129.902 237.4 129.882 237.14 129.882 236.88C129.882 236.26 130.002 235.64 130.242 235.02C130.602 234.14 131.162 233.7 131.922 233.7C132.682 233.7 133.362 233.88 133.962 234.24C134.562 234.6 134.962 234.96 135.162 235.32C136.422 234.24 137.922 233.7 139.662 233.7C141.402 233.7 142.662 234.17 143.442 235.11C144.222 236.05 144.612 237.59 144.612 239.73V248.73C144.612 248.97 143.752 249.09 142.032 249.09C140.332 249.09 139.482 248.97 139.482 248.73V240.06C139.482 239.06 139.132 238.56 138.432 238.56C138.232 238.56 137.952 238.65 137.592 238.83C137.232 238.99 137.002 239.11 136.902 239.19V248.82ZM158.496 248.19C157.236 248.93 155.616 249.3 153.636 249.3C151.656 249.3 149.986 248.63 148.626 247.29C147.266 245.93 146.586 244.06 146.586 241.68C146.586 239.28 147.236 237.35 148.536 235.89C149.856 234.43 151.516 233.7 153.516 233.7C155.516 233.7 157.056 234.21 158.136 235.23C159.236 236.25 159.786 237.49 159.786 238.95C159.786 242.19 157.926 243.81 154.206 243.81H152.136C152.136 244.41 152.296 244.83 152.616 245.07C152.956 245.29 153.446 245.4 154.086 245.4C155.486 245.4 156.816 245.08 158.076 244.44C158.096 244.42 158.186 244.56 158.346 244.86C158.826 245.72 159.066 246.45 159.066 247.05C159.066 247.63 158.876 248.01 158.496 248.19ZM154.746 239.52C154.746 238.68 154.336 238.26 153.516 238.26C153.136 238.26 152.806 238.38 152.526 238.62C152.266 238.84 152.136 239.17 152.136 239.61V240.54H153.756C154.416 240.54 154.746 240.2 154.746 239.52ZM166.696 242.7C166.696 242.82 165.976 242.88 164.536 242.88C163.116 242.88 162.406 242.83 162.406 242.73L161.806 227.94C161.806 227.78 162.716 227.7 164.536 227.7C166.376 227.7 167.296 227.77 167.296 227.91L166.696 242.7ZM161.746 244.5C161.746 244.36 162.666 244.29 164.506 244.29C166.366 244.29 167.296 244.35 167.296 244.47V248.79C167.296 248.99 166.366 249.09 164.506 249.09C162.666 249.09 161.746 249.03 161.746 248.91V244.5Z" fill="black"/>
<circle cx="99" cy="99" r="94" stroke="black" stroke-width="10"/>
<path d="M56.1992 126.117C58.6637 137.715 73.686 160.76 101.288 160.097C128.891 159.435 139.171 136.059 142.457 126.117" stroke="black" stroke-width="10"/>
<circle cx="59.1383" cy="72.2086" r="17.9703" fill="black"/>
<circle cx="139.513" cy="72.2086" r="17.9703" fill="black"/>
</svg>
