<svg width="236" height="70" viewBox="0 0 236 70" fill="none" xmlns="http://www.w3.org/2000/svg">
<path d="M79.1716 19.2566C80.7337 17.6945 80.7337 15.1619 79.1716 13.5998L77.4002 11.8284C75.8381 10.2663 73.3055 10.2663 71.7434 11.8284L58.8284 24.7434C57.2663 26.3055 54.7337 26.3055 53.1716 24.7434L40.2566 11.8284C38.6945 10.2663 36.1619 10.2663 34.5998 11.8284L32.8284 13.5998C31.2663 15.1619 31.2663 17.6945 32.8284 19.2566L45.7434 32.1716C47.3055 33.7337 47.3055 36.2663 45.7434 37.8284L32.8284 50.7434C31.2663 52.3055 31.2663 54.8381 32.8284 56.4002L34.5998 58.1716C36.1619 59.7337 38.6945 59.7337 40.2566 58.1716L53.1716 45.2566C54.7337 43.6945 57.2663 43.6945 58.8284 45.2566L71.7434 58.1716C73.3055 59.7337 75.8381 59.7337 77.4002 58.1716L79.1716 56.4002C80.7337 54.8381 80.7337 52.3055 79.1716 50.7434L66.2566 37.8284C64.6945 36.2663 64.6945 33.7337 66.2566 32.1716L79.1716 19.2566Z" fill="#FF5454"/>
<path d="M96.1018 57.3C96.1018 57.8333 94.5184 58.1 91.3518 58.1C88.1518 58.1 86.5518 57.85 86.5518 57.35V24.75C86.5518 23.5833 87.1684 23 88.4018 23H97.9518C106.718 23 111.102 26.4167 111.102 33.25C111.102 35.3167 110.702 37.2 109.902 38.9C109.102 40.5667 107.968 41.9 106.502 42.9L112.802 53.4C112.535 54.2 111.668 55.1167 110.202 56.15C108.202 57.5833 106.552 58.3 105.252 58.3C103.952 58.3 102.985 57.8333 102.352 56.9L97.6518 45.95H96.1018V57.3ZM96.1018 31.85V39.35H96.3518C99.5184 39.35 101.102 38.0333 101.102 35.4C101.102 34.2 100.785 33.3167 100.152 32.75C99.5518 32.15 98.5518 31.85 97.1518 31.85H96.1018ZM134.694 56.65C132.594 57.8833 129.894 58.5 126.594 58.5C123.294 58.5 120.511 57.3833 118.244 55.15C115.977 52.8833 114.844 49.7667 114.844 45.8C114.844 41.8 115.927 38.5833 118.094 36.15C120.294 33.7167 123.061 32.5 126.394 32.5C129.727 32.5 132.294 33.35 134.094 35.05C135.927 36.75 136.844 38.8167 136.844 41.25C136.844 46.65 133.744 49.35 127.544 49.35H124.094C124.094 50.35 124.361 51.05 124.894 51.45C125.461 51.8167 126.277 52 127.344 52C129.677 52 131.894 51.4667 133.994 50.4C134.027 50.3667 134.177 50.6 134.444 51.1C135.244 52.5333 135.644 53.75 135.644 54.75C135.644 55.7167 135.327 56.35 134.694 56.65ZM128.444 42.2C128.444 40.8 127.761 40.1 126.394 40.1C125.761 40.1 125.211 40.3 124.744 40.7C124.311 41.0667 124.094 41.6167 124.094 42.35V43.9H126.794C127.894 43.9 128.444 43.3333 128.444 42.2ZM151.61 57.7C151.61 58.1 150.21 58.3 147.41 58.3C144.077 58.1667 142.41 57.95 142.41 57.65V39.95H139.86C139.194 39.95 138.86 38.8 138.86 36.5C138.86 35.9 138.91 35.1667 139.01 34.3C139.144 33.4333 139.394 33 139.76 33H142.41V28.6C142.41 27.9333 143.81 27.6 146.61 27.6C149.444 27.6 150.86 27.8667 150.86 28.4V31.6L150.91 33H155.16C155.727 33 156.01 34.1667 156.01 36.5C156.01 38.8333 155.727 40 155.16 40H151.61V57.7ZM169.469 57.95C169.469 58.1833 167.952 58.3 164.919 58.3C161.885 58.2333 160.369 58.1 160.369 57.9V41.3H159.019C158.485 41.3 158.052 40.9833 157.719 40.35C157.419 39.6833 157.269 38.8667 157.269 37.9C157.269 34.3 158.335 32.5 160.469 32.5C161.969 32.5 163.219 32.9667 164.219 33.9C165.219 34.8 165.719 35.8333 165.719 37C166.419 35.6333 167.352 34.55 168.519 33.75C169.719 32.9167 170.935 32.5 172.169 32.5C174.102 32.5 175.269 33 175.669 34C175.769 34.2667 175.819 34.6667 175.819 35.2C175.819 35.7 175.652 36.6167 175.319 37.95C175.019 39.2833 174.702 40.25 174.369 40.85C174.035 41.45 173.835 41.75 173.769 41.75C173.702 41.75 173.385 41.6333 172.819 41.4C172.285 41.1333 171.802 41 171.369 41C170.102 41 169.469 42 169.469 44V57.95ZM176.593 33.25C176.593 32.8833 178.109 32.7 181.143 32.7C184.209 32.7 185.793 32.8667 185.893 33.2L189.493 45L192.943 33.1C193.076 32.8333 194.109 32.7 196.043 32.7C200.476 32.7 202.593 32.9167 202.393 33.35L190.643 66.8C190.609 67 189.693 67.1 187.893 67.1C186.126 67.1 184.476 67.0333 182.943 66.9C181.409 66.8 180.676 66.6667 180.743 66.5L185.093 56L176.593 33.25Z" fill="#DD1E1E"/>
</svg>
